<?xml version="1.0" encoding="iso-8859-1"?>
<!-- Uploaded to: SVG Repo, www.svgrepo.com, Generator: SVG Repo Mixer Tools -->
<svg fill="#000000" height="800px" width="800px" version="1.1" id="Capa_1" xmlns="http://www.w3.org/2000/svg" xmlns:xlink="http://www.w3.org/1999/xlink" 
	 viewBox="0 0 59.983 59.983" xml:space="preserve">
<g>
	<g>
		<path d="M34.453,23.881l8.675-8.954c0.705-0.705,0.705-1.852,0-2.557L31.271,0.513c-0.684-0.684-1.873-0.684-2.557,0L16.857,12.37
			c-0.705,0.705-0.705,1.852-0.011,2.546l8.686,8.965c0.942,0.972,1.461,2.253,1.461,3.607v5.495h-5c-1.654,0-3,1.346-3,3
			s1.346,3,3,3h5v18c0,1.654,1.346,3,3,3s3-1.346,3-3v-18h5c1.654,0,3-1.346,3-3s-1.346-3-3-3h-5v-5.495
			C32.992,26.134,33.511,24.853,34.453,23.881z M29.992,22.405l-8.757-8.757l8.757-8.757l8.757,8.757L29.992,22.405z"/>
	</g>
</g>
</svg>